<svg width="26" height="25" viewBox="0 0 26 25" fill="none" xmlns="http://www.w3.org/2000/svg">
<path fill-rule="evenodd" clip-rule="evenodd" d="M12.7155 0C5.69258 0 0 5.59609 0 12.5C0 19.4031 5.69258 25 12.7155 25C19.7377 25 25.431 19.4039 25.431 12.5C25.431 5.59609 19.7377 0 12.7155 0ZM12.7155 23.4375C6.57074 23.4375 1.58944 18.5406 1.58944 12.5C1.58944 6.45937 6.57074 1.5625 12.7155 1.5625C18.8603 1.5625 23.8416 6.45937 23.8416 12.5C23.8416 18.5406 18.8603 23.4375 12.7155 23.4375Z" fill="#DDF9FF"/>
<path fill-rule="evenodd" clip-rule="evenodd" d="M18.0634 16.618L13.8768 12.5016L18.0395 8.44296C18.3534 8.13749 18.3534 7.64296 18.0395 7.33827C17.7264 7.03358 17.2178 7.03358 16.9047 7.33827L12.7475 11.3914L8.52831 7.24296C8.21519 6.93358 7.70657 6.93358 7.39345 7.24296C7.08033 7.55155 7.08033 8.05311 7.39345 8.36171L11.6063 12.5039L7.36961 16.6344C7.05649 16.9398 7.05649 17.4344 7.36961 17.739C7.68272 18.0445 8.19135 18.0445 8.50526 17.739L12.7363 13.6141L16.9293 17.7359C17.2424 18.0453 17.751 18.0453 18.0641 17.7359C18.3765 17.4281 18.3765 16.9273 18.0634 16.618Z" fill="#DDF9FF"/>
</svg>
