<svg width="27" height="26" viewBox="0 0 27 26" fill="none" xmlns="http://www.w3.org/2000/svg">
<path d="M13.569 0.5C6.55774 0.5 0.853516 6.10755 0.853516 13C0.853516 19.8925 6.55774 25.5 13.569 25.5C20.5803 25.5 26.2845 19.8925 26.2845 13C26.2845 6.10755 20.5803 0.5 13.569 0.5ZM13.569 2.375C19.5495 2.375 24.3772 7.12087 24.3772 13C24.3772 18.8791 19.5495 23.625 13.569 23.625C7.58853 23.625 2.76084 18.8791 2.76084 13C2.76084 7.12087 7.58853 2.375 13.569 2.375ZM13.569 6.75C13.2318 6.75 12.9084 6.8817 12.6699 7.11612C12.4314 7.35054 12.2975 7.66848 12.2975 8C12.2975 8.33152 12.4314 8.64946 12.6699 8.88388C12.9084 9.1183 13.2318 9.25 13.569 9.25C13.9063 9.25 14.2297 9.1183 14.4682 8.88388C14.7066 8.64946 14.8406 8.33152 14.8406 8C14.8406 7.66848 14.7066 7.35054 14.4682 7.11612C14.2297 6.8817 13.9063 6.75 13.569 6.75ZM13.5541 11.1116C13.3014 11.1155 13.0606 11.2178 12.8846 11.3961C12.7086 11.5744 12.6117 11.8141 12.6154 12.0625V18.9375C12.6136 19.0617 12.6369 19.1851 12.6841 19.3004C12.7312 19.4156 12.8011 19.5206 12.8899 19.609C12.9786 19.6975 13.0843 19.7678 13.2009 19.8157C13.3175 19.8637 13.4426 19.8884 13.569 19.8884C13.6954 19.8884 13.8205 19.8637 13.9371 19.8157C14.0537 19.7678 14.1595 19.6975 14.2482 19.609C14.3369 19.5206 14.4069 19.4156 14.454 19.3004C14.5011 19.1851 14.5245 19.0617 14.5227 18.9375V12.0625C14.5245 11.937 14.5007 11.8125 14.4527 11.6962C14.4046 11.5799 14.3333 11.4743 14.243 11.3856C14.1527 11.297 14.0452 11.227 13.9268 11.1799C13.8085 11.1329 13.6818 11.1096 13.5541 11.1116Z" fill="#DDF9FF"/>
</svg>
